<svg width="34" height="34" viewBox="0 0 34 34" fill="none" xmlns="http://www.w3.org/2000/svg">
<g clip-path="url(#clip0_55_71)">
<path d="M8.50016 26.9167C8.50016 28.475 9.77516 29.75 11.3335 29.75H22.6668C24.2252 29.75 25.5002 28.475 25.5002 26.9167V12.75C25.5002 11.1917 24.2252 9.91667 22.6668 9.91667H11.3335C9.77516 9.91667 8.50016 11.1917 8.50016 12.75V26.9167ZM12.7502 12.75H21.2502C22.0293 12.75 22.6668 13.3875 22.6668 14.1667V25.5C22.6668 26.2792 22.0293 26.9167 21.2502 26.9167H12.7502C11.971 26.9167 11.3335 26.2792 11.3335 25.5V14.1667C11.3335 13.3875 11.971 12.75 12.7502 12.75ZM21.9585 5.66667L20.9527 4.66083C20.6977 4.40583 20.3293 4.25 19.961 4.25H14.0393C13.671 4.25 13.3027 4.40583 13.0477 4.66083L12.0418 5.66667H8.50016C7.721 5.66667 7.0835 6.30417 7.0835 7.08333C7.0835 7.8625 7.721 8.5 8.50016 8.5H25.5002C26.2793 8.5 26.9168 7.8625 26.9168 7.08333C26.9168 6.30417 26.2793 5.66667 25.5002 5.66667H21.9585Z" fill="white"/>
</g>
<defs>
<clipPath id="clip0_55_71">
<rect width="34" height="34" fill="white"/>
</clipPath>
</defs>
</svg>
